<svg xmlns="http://www.w3.org/2000/svg" width="380" height="169" fill="none">
  <path fill="#000" d="M85.34 106.675c13.692 0 24.791-11.1 24.791-24.792 0-13.692-11.1-24.791-24.791-24.791-13.692 0-24.792 11.1-24.792 24.791 0 13.692 11.1 24.792 24.792 24.792Zm232.419-24.792c0-13.683-11.108-24.791-24.791-24.791S268.176 68.2 268.176 81.883s11.109 24.792 24.792 24.792c13.683 0 24.791-11.109 24.791-24.792Zm-37.664 0c0-7.103 5.769-12.872 12.873-12.872 7.103 0 12.872 5.769 12.872 12.872 0 7.104-5.769 12.873-12.872 12.873-7.104 0-12.873-5.77-12.873-12.873Z"/>
  <path fill="#000" d="M354.97 24.052C338.856 8.534 316.83 0 292.968 0c-16.52 0-31.156 4.505-44.792 13.778-11.799 8.01-21.335 18.498-30.56 28.63-2.384 2.622-4.863 5.34-7.318 7.938-14.899 15.78-24.696 29.153-25.125 29.702 0 0 0 .023-.024.023l-.024.024c-.095.143-9.654 13.445-23.838 28.868-2.097 2.288-4.219 4.648-6.293 6.937-9.154 10.179-18.617 20.715-29.63 28.486-12.182 8.606-24.363 12.61-38.38 12.61-20.738 0-39.809-7.532-53.682-21.192-13.803-13.587-21.407-32.133-21.407-52.228 0-19.595 7.58-37.664 21.359-50.918 13.897-13.373 32.968-20.715 53.73-20.715 14.017 0 26.151 3.862 38.213 12.133 10.894 7.485 20.286 17.664 29.368 27.533 2.098 2.288 4.267 4.648 6.436 6.913 2.265 2.384 6.031 2.503 8.415.238 2.384-2.264 2.503-6.03.238-8.414a1858.88 1858.88 0 0 1-6.341-6.818c-9.535-10.346-19.38-21.025-31.394-29.273C118.021 4.648 103.313 0 87.009 0 63.146 0 41.143 8.534 25.005 24.052 8.892 39.571 0 60.692 0 83.552c0 23.313 8.868 44.887 24.958 60.715 16.139 15.876 38.165 24.624 62.05 24.624 36.377 0 57.903-23.933 76.878-45.029a837.928 837.928 0 0 1 6.197-6.842c14.494-15.757 24.101-29.082 24.72-29.964.453-.596 10.06-13.611 24.148-28.534 2.503-2.67 5.03-5.411 7.438-8.081 8.772-9.607 17.83-19.57 28.462-26.794 11.752-7.985 23.862-11.728 38.093-11.728 20.763 0 39.833 7.366 53.731 20.715 13.802 13.254 21.382 31.323 21.382 50.918 0 20.095-7.604 38.641-21.406 52.229-13.874 13.659-32.944 21.192-53.683 21.192-13.349 0-26.246-4.697-39.428-14.327-11.991-8.772-22.503-20.215-32.634-31.252l-2.217-2.431c-2.217-2.431-6.007-2.574-8.415-.358-2.431 2.217-2.574 6.008-.357 8.415.739.811 1.478 1.597 2.217 2.408 10.035 10.941 21.43 23.361 34.374 32.825 15.304 11.203 30.512 16.638 46.484 16.638 23.885 0 45.911-8.748 62.05-24.624C371.132 128.439 380 106.865 380 83.552c-.024-22.86-8.915-43.981-25.03-59.5Z"/>
</svg>
